<?xml version="1.0" encoding="utf-8"?>
<!-- Generator: Adobe Illustrator 22.1.0, SVG Export Plug-In . SVG Version: 6.00 Build 0)  -->
<svg version="1.1" id="Layer_1" xmlns="http://www.w3.org/2000/svg" xmlns:xlink="http://www.w3.org/1999/xlink" x="0px" y="0px"
	 viewBox="0 0 250 37" style="enable-background:new 0 0 250 37;" xml:space="preserve">
<style type="text/css">
	.st0{fill:none;stroke:#222222;stroke-width:2;}
	.st1{fill:#AF9A7D;}
</style>
<rect x="1" y="1" class="st0" width="248" height="35"/>
<g>
	<path class="st1" d="M114.8,17.9c0.6,0,1.1-0.1,1.5-0.2c0.4-0.2,0.8-0.4,1-0.6c0.3-0.3,0.5-0.6,0.6-0.9c0.1-0.4,0.2-0.7,0.2-1.2
		c0-0.8-0.3-1.5-0.8-1.9c-0.5-0.5-1.4-0.7-2.5-0.7H113v5.5H114.8z M123.3,27.1H120c-0.6,0-1-0.2-1.3-0.7l-3.3-5.3
		c-0.1-0.2-0.3-0.4-0.5-0.5c-0.2-0.1-0.4-0.1-0.7-0.1H113v6.6h-3.6V9.7h5.5c1.2,0,2.3,0.1,3.1,0.4c0.9,0.2,1.6,0.6,2.1,1
		s1,1,1.2,1.6c0.3,0.6,0.4,1.3,0.4,2c0,0.6-0.1,1.1-0.3,1.6c-0.2,0.5-0.4,1-0.7,1.4s-0.7,0.8-1.2,1.1c-0.5,0.3-1,0.6-1.6,0.8
		c0.2,0.1,0.4,0.3,0.6,0.5c0.2,0.2,0.4,0.4,0.5,0.6L123.3,27.1z M138.8,19.5c0-0.3,0-0.7-0.1-1c-0.1-0.3-0.2-0.6-0.4-0.8
		s-0.5-0.4-0.8-0.6c-0.3-0.1-0.7-0.2-1.1-0.2c-0.8,0-1.4,0.2-1.9,0.7c-0.4,0.4-0.7,1.1-0.9,1.9H138.8z M133.5,21.4
		c0.1,1.2,0.4,2,1,2.5c0.6,0.5,1.3,0.8,2.2,0.8c0.5,0,0.8-0.1,1.2-0.2c0.3-0.1,0.6-0.2,0.9-0.4c0.3-0.1,0.5-0.3,0.7-0.4
		c0.2-0.1,0.4-0.2,0.6-0.2c0.3,0,0.5,0.1,0.6,0.3l1,1.2c-0.4,0.4-0.7,0.7-1.2,1c-0.4,0.3-0.9,0.5-1.3,0.6c-0.5,0.2-0.9,0.3-1.4,0.3
		c-0.5,0.1-0.9,0.1-1.3,0.1c-0.9,0-1.7-0.1-2.4-0.4c-0.7-0.3-1.4-0.7-2-1.3c-0.6-0.6-1-1.3-1.3-2.1c-0.3-0.8-0.5-1.8-0.5-2.9
		c0-0.8,0.1-1.6,0.4-2.4c0.3-0.7,0.7-1.4,1.2-1.9c0.5-0.6,1.2-1,1.9-1.3c0.7-0.3,1.6-0.5,2.5-0.5c0.8,0,1.5,0.1,2.2,0.4
		c0.7,0.2,1.2,0.6,1.7,1.1c0.5,0.5,0.9,1.1,1.1,1.8c0.3,0.7,0.4,1.5,0.4,2.4c0,0.2,0,0.5,0,0.6s-0.1,0.3-0.1,0.4
		c-0.1,0.1-0.1,0.2-0.2,0.2c-0.1,0-0.2,0-0.4,0H133.5z M158.7,17.3c-0.1,0.1-0.2,0.2-0.3,0.3c-0.1,0.1-0.2,0.1-0.4,0.1
		c-0.2,0-0.3,0-0.5-0.1s-0.4-0.2-0.6-0.3c-0.2-0.1-0.4-0.2-0.7-0.3c-0.3-0.1-0.6-0.1-0.9-0.1c-0.5,0-1,0.1-1.2,0.3
		c-0.3,0.2-0.4,0.5-0.4,0.9c0,0.2,0.1,0.5,0.3,0.6c0.2,0.2,0.4,0.3,0.7,0.4c0.3,0.1,0.6,0.2,0.9,0.3c0.4,0.1,0.7,0.2,1.1,0.3
		c0.4,0.1,0.7,0.3,1.1,0.4c0.4,0.2,0.7,0.4,0.9,0.6c0.3,0.2,0.5,0.6,0.7,0.9c0.2,0.4,0.3,0.8,0.3,1.3c0,0.6-0.1,1.2-0.3,1.7
		c-0.2,0.5-0.5,0.9-1,1.3s-1,0.7-1.6,0.9c-0.6,0.2-1.4,0.3-2.2,0.3c-0.4,0-0.8,0-1.3-0.1c-0.4-0.1-0.8-0.2-1.2-0.3
		c-0.4-0.1-0.7-0.3-1.1-0.5s-0.6-0.4-0.9-0.6l0.8-1.2c0.1-0.1,0.2-0.3,0.3-0.3c0.1-0.1,0.3-0.1,0.5-0.1c0.2,0,0.4,0.1,0.6,0.2
		c0.2,0.1,0.4,0.2,0.6,0.3c0.2,0.1,0.5,0.2,0.7,0.3c0.3,0.1,0.6,0.1,1.1,0.1c0.3,0,0.6,0,0.8-0.1c0.2-0.1,0.4-0.2,0.6-0.3
		c0.1-0.1,0.2-0.3,0.3-0.4c0.1-0.2,0.1-0.3,0.1-0.5c0-0.3-0.1-0.5-0.3-0.7c-0.2-0.2-0.4-0.3-0.7-0.5c-0.3-0.1-0.6-0.2-0.9-0.3
		s-0.7-0.2-1.1-0.3c-0.4-0.1-0.7-0.3-1.1-0.5c-0.4-0.2-0.7-0.4-0.9-0.7c-0.3-0.3-0.5-0.6-0.7-1c-0.2-0.4-0.3-0.9-0.3-1.4
		c0-0.5,0.1-1,0.3-1.5c0.2-0.5,0.5-0.9,0.9-1.2c0.4-0.4,0.9-0.6,1.5-0.8c0.6-0.2,1.3-0.3,2.1-0.3c0.9,0,1.7,0.1,2.4,0.4
		s1.3,0.7,1.8,1.1L158.7,17.3z M174.4,14.5c0.9,0,1.8,0.1,2.5,0.4c0.8,0.3,1.4,0.7,2,1.3c0.5,0.5,1,1.2,1.3,2
		c0.3,0.8,0.4,1.7,0.4,2.7c0,1-0.1,1.9-0.4,2.7c-0.3,0.8-0.7,1.5-1.3,2s-1.2,1-2,1.3c-0.8,0.3-1.6,0.4-2.5,0.4
		c-0.9,0-1.8-0.1-2.6-0.4c-0.8-0.3-1.4-0.7-2-1.3s-1-1.2-1.3-2c-0.3-0.8-0.4-1.7-0.4-2.7c0-1,0.1-1.9,0.4-2.7c0.3-0.8,0.7-1.4,1.3-2
		c0.5-0.6,1.2-1,2-1.3C172.6,14.7,173.4,14.5,174.4,14.5z M174.4,24.8c0.9,0,1.6-0.3,2.1-1c0.5-0.7,0.7-1.6,0.7-2.9
		c0-1.3-0.2-2.2-0.7-2.9c-0.5-0.7-1.2-1-2.1-1c-1,0-1.7,0.3-2.1,1c-0.5,0.6-0.7,1.6-0.7,2.9c0,1.3,0.2,2.3,0.7,2.9
		C172.7,24.5,173.4,24.8,174.4,24.8z M192.9,16.8c0.4-0.7,0.8-1.3,1.4-1.7c0.5-0.4,1.1-0.6,1.8-0.6c0.6,0,1,0.1,1.4,0.4l-0.2,2.4
		c0,0.2-0.1,0.3-0.2,0.3c-0.1,0.1-0.2,0.1-0.3,0.1c-0.1,0-0.3,0-0.6,0c-0.2,0-0.5-0.1-0.7-0.1c-0.3,0-0.6,0-0.8,0.1
		c-0.2,0.1-0.4,0.2-0.6,0.4c-0.2,0.2-0.4,0.4-0.5,0.6c-0.1,0.2-0.3,0.5-0.4,0.8v7.6h-3.3V14.7h2c0.3,0,0.6,0.1,0.7,0.2
		c0.1,0.1,0.2,0.3,0.3,0.6L192.9,16.8z M210.4,27.3c-0.6,0-1.1-0.1-1.5-0.2c-0.4-0.2-0.8-0.4-1.1-0.7c-0.3-0.3-0.5-0.7-0.7-1.1
		c-0.2-0.4-0.2-0.9-0.2-1.5v-6.7h-1.2c-0.2,0-0.3-0.1-0.5-0.2c-0.1-0.1-0.2-0.3-0.2-0.5v-1.3l2-0.4l0.7-3.2c0.1-0.4,0.3-0.5,0.7-0.5
		h1.7v3.8h3.2v2.3h-3.2v6.5c0,0.3,0.1,0.6,0.2,0.8c0.2,0.2,0.4,0.3,0.7,0.3c0.2,0,0.3,0,0.4,0c0.1,0,0.2-0.1,0.3-0.1
		c0.1,0,0.2-0.1,0.2-0.1c0.1,0,0.1-0.1,0.2-0.1c0.1,0,0.2,0,0.2,0.1c0.1,0,0.1,0.1,0.2,0.2l1,1.6c-0.5,0.4-1,0.6-1.5,0.8
		C211.6,27.2,211,27.3,210.4,27.3z"/>
	<g>
		<path d="M43.8,12.1c-1.5,0-2.7,0.6-3.5,1.7c-0.9,1.1-1.3,2.7-1.3,4.7c0,2.1,0.4,3.7,1.2,4.8c0.8,1.1,2,1.6,3.6,1.6
			c0.7,0,1.3-0.1,2-0.2c0.6-0.1,1.3-0.3,2-0.6v2.4c-1.2,0.5-2.7,0.8-4.2,0.8c-2.3,0-4.1-0.8-5.4-2.3s-1.9-3.7-1.9-6.5
			c0-1.8,0.3-3.3,0.9-4.7c0.6-1.3,1.5-2.4,2.6-3.1c1.1-0.7,2.5-1.1,4-1.1c1.6,0,3.1,0.4,4.5,1.1l-0.9,2.3c-0.5-0.3-1.1-0.5-1.7-0.7
			C45.1,12.2,44.5,12.1,43.8,12.1z"/>
		<path d="M62.9,27.1l-0.5-1.7h-0.1c-0.6,0.7-1.2,1.2-1.7,1.5c-0.6,0.3-1.3,0.4-2.3,0.4c-1.2,0-2.1-0.3-2.8-1c-0.7-0.6-1-1.5-1-2.7
			c0-1.2,0.5-2.2,1.4-2.8c0.9-0.6,2.3-1,4.2-1l2.1-0.1v-0.6c0-0.8-0.2-1.3-0.5-1.7s-0.9-0.6-1.7-0.6c-0.6,0-1.2,0.1-1.8,0.3
			c-0.6,0.2-1.1,0.4-1.6,0.6l-0.8-1.8c0.7-0.3,1.4-0.6,2.1-0.8c0.8-0.2,1.5-0.3,2.2-0.3c1.5,0,2.7,0.3,3.5,1
			c0.8,0.7,1.2,1.7,1.2,3.1v8.1H62.9z M59.1,25.4c0.9,0,1.7-0.3,2.2-0.8c0.6-0.5,0.8-1.2,0.8-2.2v-1l-1.5,0.1
			c-1.2,0-2.1,0.2-2.6,0.6c-0.5,0.4-0.8,0.9-0.8,1.6c0,0.5,0.2,0.9,0.5,1.2C58,25.2,58.4,25.4,59.1,25.4z"/>
		<path d="M78.8,14.9c0.5,0,0.9,0,1.3,0.1l-0.3,2.4c-0.4-0.1-0.7-0.1-1.1-0.1c-1,0-1.8,0.3-2.5,1c-0.6,0.7-0.9,1.5-0.9,2.6v6.3h-2.6
			v-12h2l0.3,2.1h0.1c0.4-0.7,0.9-1.3,1.6-1.7C77.4,15.1,78.1,14.9,78.8,14.9z"/>
		<path d="M94.8,23.7c0,1.2-0.4,2.1-1.3,2.7c-0.9,0.6-2.1,0.9-3.7,0.9c-1.6,0-2.9-0.2-3.9-0.7v-2.2c1.4,0.6,2.7,1,3.9,1
			c1.6,0,2.4-0.5,2.4-1.4c0-0.3-0.1-0.6-0.3-0.8c-0.2-0.2-0.5-0.4-0.9-0.6c-0.4-0.2-1-0.5-1.7-0.7c-1.4-0.5-2.3-1.1-2.8-1.6
			C86.2,19.7,86,19,86,18.1c0-1,0.4-1.8,1.2-2.4c0.8-0.6,2-0.8,3.4-0.8c1.4,0,2.7,0.3,4,0.9l-0.8,1.9c-1.3-0.5-2.4-0.8-3.3-0.8
			c-1.3,0-2,0.4-2,1.1c0,0.4,0.2,0.7,0.5,1c0.4,0.3,1.1,0.6,2.3,1.1c1,0.4,1.7,0.7,2.2,1c0.4,0.3,0.8,0.7,1,1.1
			C94.7,22.6,94.8,23.1,94.8,23.7z"/>
	</g>
</g>
</svg>
